<svg width="535" height="460" viewBox="0 0 535 460" fill="none" xmlns="http://www.w3.org/2000/svg">
<path d="M205.444 152.433L133.641 213.886V166.808L151.592 151.445C151.592 151.445 162.532 142.081 169.543 136.082C183.563 124.082 205.444 105.355 205.444 105.355V128.894V152.433Z" fill="#BEBFBF"/>
<path d="M133.631 166.93H15.4688V214.008H133.631V166.93Z" fill="#9BA5A5"/>
<path d="M133.631 213.828H15.4688V260.906H133.631V213.828Z" fill="#DBDBDB"/>
<path d="M205.434 199.453L133.631 260.906V213.828L151.582 198.465C151.582 198.465 162.523 189.101 169.533 183.102C183.553 171.102 205.434 152.375 205.434 152.375V175.914V199.453Z" fill="#EAE8E8"/>
<path d="M133.631 260.727H15.4688V307.805H133.631V260.727Z" fill="#38556D"/>
<path d="M205.434 246.262L133.631 307.805V260.727L205.434 199.184V246.262Z" fill="#5B7183"/>
<path d="M133.631 307.535H15.4688V354.613H133.631V307.535Z" fill="#6A9DAC"/>
<path d="M455.236 152.465H205.434V105.387H455.236L486.717 128.926L455.236 152.465Z" fill="#9BA5A5"/>
<path d="M402.192 199.273H205.434V152.195H402.192L433.781 175.734L402.192 199.273Z" fill="#DBDBDB"/>
<path d="M353.03 246.172H205.434V199.094H353.03L384.511 222.633L353.03 246.172Z" fill="#435E74"/>
<path d="M298.153 293.07H205.434V245.992H298.153L329.634 269.531L298.153 293.07Z" fill="#6A9DAC"/>
<path d="M205.434 293.16L133.631 354.613V307.535L205.434 246.082V293.16Z" fill="#82ACB8"/>
<path d="M97.0454 327.614L96.5542 328.35L95.6948 329.36L97.1187 327.502L97.0454 327.614ZM99.9019 326.946H97.5464L99.0347 325.004H101.43V338.535H99.7935V335.067H99.9019V326.946Z" fill="white" stroke="#EAE8E8" stroke-width="3"/>
<path d="M99.835 287.472C100.615 287.68 101.167 288.058 101.469 288.41L101.513 288.462L101.562 288.509C101.826 288.766 101.979 289.113 102.182 290.087C102.164 290.563 102.057 290.934 101.882 291.243C101.691 291.58 101.376 291.922 100.854 292.262C99.9236 292.791 98.6983 293.157 97.1992 293.266C97.9007 293.162 98.5419 292.935 99.127 292.545C100.147 291.865 100.55 290.818 100.55 289.859C100.55 289.086 100.393 288.192 99.835 287.472ZM92.7412 291.449C92.9405 291.825 93.2165 292.162 93.5615 292.449C94.1087 292.905 94.7774 293.153 95.4297 293.264C94.2888 293.163 93.2719 292.85 92.3662 292.366L92.1445 292.244C91.707 291.992 91.4222 291.721 91.2334 291.449H92.7412ZM96.1387 279.141C97.9729 279.141 99.3434 279.5 100.327 280.057L100.519 280.171C101.373 280.705 101.755 281.391 101.755 282.402C101.755 282.667 101.63 283.052 101.253 283.492C100.899 283.905 100.378 284.293 99.6582 284.568C100.054 283.969 100.227 283.269 100.227 282.582C100.227 281.577 99.7969 280.713 99.04 280.082C98.2424 279.417 97.2014 279.195 96.2471 279.195C95.3769 279.195 94.7289 279.424 94.1748 279.734L93.9424 279.872C93.5839 280.096 93.2762 280.382 93.0449 280.723H91.5029C91.639 280.574 91.81 280.427 92.0225 280.28L92.1904 280.171C93.2164 279.53 94.5504 279.141 96.1387 279.141Z" fill="white" stroke="#EAE8E8" stroke-width="3"/>
<path d="M81.0996 325.063C82.4349 325.171 83.4198 325.498 84.0967 325.953L84.2568 326.067C85.014 326.641 85.3877 327.425 85.3877 328.555C85.3877 329.2 85.2292 329.715 84.8984 330.198L84.7461 330.403C84.1784 331.112 83.0755 332.207 81.334 333.839L81.3105 333.862L81.2871 333.885L78.916 336.311L76.458 338.825H75.3428V338.474L80.9951 333.35L81.0049 333.341L81.0137 333.333C81.936 332.469 82.5519 331.758 83.0576 331.021L83.1113 330.943L83.1553 330.858C83.4755 330.235 83.8604 329.405 83.8604 328.555C83.8604 327.651 83.5698 326.798 83.0439 326.151L82.9355 326.024L82.7949 325.878C82.3097 325.412 81.7092 325.171 81.0996 325.063ZM79.5293 325.041C78.6633 325.178 77.9581 325.583 77.3965 326.168L77.3496 326.217L77.3076 326.27C76.9816 326.678 76.7374 327.122 76.5752 327.594H75.0703C75.2737 327.128 75.6035 326.704 76.0967 326.293L76.1221 326.273L76.1455 326.251C76.8828 325.581 78.0116 325.13 79.5293 325.041Z" fill="white" stroke="#EAE8E8" stroke-width="3"/>
<path d="M62.7183 324.966C61.9144 325.108 61.2342 325.494 60.687 326.11L60.5493 326.273C59.8223 327.182 59.5737 328.38 59.5737 329.547V334.398C59.5737 335.492 59.7919 336.613 60.4185 337.498L60.5493 337.672C61.2702 338.573 62.2436 339.043 63.4458 339.043C64.5729 339.043 65.4984 338.629 66.2036 337.835L66.3413 337.672C67.0683 336.763 67.3169 335.565 67.3169 334.398V329.547C67.3169 328.351 67.092 327.31 66.4712 326.444L66.3413 326.273C65.7843 325.577 65.0766 325.139 64.229 324.976C65.585 325.109 66.6887 325.586 67.5288 326.278C68.4573 327.127 68.9536 328.225 68.9536 329.816V334.219C68.9536 335.861 68.4272 337.009 67.5522 337.738L67.5044 337.778L67.4604 337.822C66.6469 338.624 65.3586 339.098 63.5532 339.098C61.7349 339.098 60.4686 338.582 59.4653 337.753C58.5396 336.905 58.0454 335.807 58.0454 334.219V329.816C58.0454 328.1 58.507 326.99 59.3384 326.297L59.3608 326.278L59.3833 326.258C60.1968 325.523 61.293 325.077 62.7183 324.966Z" fill="white" stroke="#EAE8E8" stroke-width="3"/>
<path d="M47.8459 324.977C49.1812 325.085 50.1661 325.412 50.843 325.866L51.0032 325.98C51.7604 326.554 52.134 327.338 52.134 328.469C52.134 329.113 51.9755 329.629 51.6448 330.111L51.4924 330.316C50.9248 331.026 49.8219 332.12 48.0803 333.753L48.0569 333.775L48.0334 333.799L45.6624 336.225L43.2043 338.738H42.0891V338.388L47.7415 333.264L47.7512 333.255L47.76 333.247C48.6824 332.382 49.2983 331.672 49.804 330.935L49.8577 330.856L49.9016 330.771C50.2218 330.149 50.6067 329.318 50.6067 328.469C50.6067 327.565 50.3162 326.712 49.7903 326.064L49.6819 325.938L49.5413 325.792C49.0561 325.325 48.4555 325.085 47.8459 324.977ZM46.2756 324.954C45.4096 325.092 44.7044 325.497 44.1428 326.082L44.0959 326.131L44.054 326.184C43.7279 326.591 43.4838 327.035 43.3215 327.508H41.8167C42.0201 327.042 42.3499 326.618 42.843 326.207L42.8684 326.187L42.8918 326.165C43.6291 325.495 44.7579 325.044 46.2756 324.954Z" fill="white" stroke="#EAE8E8" stroke-width="3"/>
<path d="M80.0496 278.974C81.3848 279.083 82.3697 279.41 83.0466 279.864L83.2068 279.978C83.964 280.552 84.3376 281.336 84.3376 282.467C84.3376 283.111 84.1791 283.626 83.8484 284.109L83.696 284.314C83.1284 285.024 82.0255 286.118 80.2839 287.751L80.2605 287.773L80.2371 287.797L77.866 290.222L75.408 292.736H74.2927V292.385L79.9451 287.261L79.9548 287.253L79.9636 287.245C80.886 286.38 81.5019 285.67 82.0076 284.932L82.0613 284.854L82.1052 284.77C82.4255 284.147 82.8103 283.316 82.8103 282.467C82.8103 281.563 82.5198 280.709 81.9939 280.062L81.8855 279.935L81.7449 279.79C81.2597 279.323 80.6592 279.082 80.0496 278.974ZM78.4792 278.952C77.6133 279.09 76.908 279.495 76.3464 280.08L76.2996 280.129L76.2576 280.181C75.9315 280.589 75.6874 281.033 75.5251 281.506H74.0203C74.2237 281.04 74.5535 280.616 75.0466 280.205L75.072 280.184L75.0955 280.163C75.8328 279.493 76.9615 279.041 78.4792 278.952Z" fill="white" stroke="#EAE8E8" stroke-width="3"/>
<path d="M64.1711 278.966C65.4935 279.069 66.5325 279.46 67.3254 280.103L67.5071 280.258C68.4497 281.109 68.9534 282.213 68.9534 283.816V288.219C68.9534 289.861 68.427 291.009 67.552 291.738L67.5042 291.778L67.4602 291.822C66.6466 292.624 65.3584 293.098 63.553 293.098C61.7347 293.098 60.4684 292.582 59.4651 291.753C58.5394 290.905 58.0452 289.807 58.0452 288.219V283.816C58.0452 282.207 58.4509 281.131 59.1868 280.432L59.3381 280.297L59.3606 280.278L59.3831 280.258C60.1966 279.523 61.2927 279.077 62.718 278.966C61.9142 279.108 61.234 279.494 60.6868 280.11L60.5491 280.273C59.822 281.182 59.5735 282.38 59.5735 283.547V288.398C59.5735 289.492 59.7917 290.613 60.4182 291.498L60.5491 291.672C61.2699 292.573 62.2434 293.043 63.4456 293.043C64.5727 293.043 65.4981 292.629 66.2034 291.835L66.3411 291.672C67.0681 290.763 67.3167 289.565 67.3167 288.398V283.547C67.3166 282.351 67.0917 281.31 66.4709 280.444L66.3411 280.273C65.7715 279.562 65.0442 279.12 64.1711 278.966Z" fill="white" stroke="#EAE8E8" stroke-width="3"/>
<path d="M47.6555 278.874C49.088 278.966 50.1343 279.301 50.843 279.777L51.0032 279.891C51.7604 280.464 52.134 281.249 52.134 282.379C52.134 283.024 51.9755 283.539 51.6448 284.022L51.4924 284.227C50.9248 284.936 49.8219 286.031 48.0803 287.663L48.0569 287.686L48.0334 287.709L45.6624 290.135L43.2043 292.649H41.9817V292.297L47.634 287.174L47.6438 287.165L47.6526 287.157C48.575 286.293 49.1908 285.582 49.6965 284.845L49.7502 284.767L49.7932 284.682C50.1135 284.059 50.4983 283.229 50.4983 282.379C50.4983 281.475 50.2086 280.622 49.6829 279.975L49.5745 279.848L49.4329 279.702C48.9259 279.215 48.2931 278.975 47.6555 278.874ZM46.0911 278.877C45.4194 278.998 44.7596 279.305 44.2034 279.918L44.054 280.094C43.7279 280.502 43.4838 280.946 43.3215 281.418H41.8167C42.0201 280.952 42.3498 280.528 42.843 280.117L42.8684 280.097L42.8918 280.075C43.5989 279.433 44.6661 278.991 46.0911 278.877Z" fill="white" stroke="#EAE8E8" stroke-width="3"/>
<path d="M96.8516 233.177C98.1868 233.286 99.1717 233.613 99.8486 234.067L100.009 234.181C100.766 234.755 101.14 235.539 101.14 236.67C101.14 237.314 100.981 237.83 100.65 238.312L100.498 238.517C99.9304 239.227 98.8275 240.321 97.0859 241.954L97.0625 241.976L97.0391 242L94.668 244.426L92.21 246.939H91.0947V246.589L96.7471 241.465L96.7568 241.456L96.7656 241.448C97.688 240.583 98.3039 239.873 98.8096 239.135L98.8633 239.057L98.9072 238.972C99.2275 238.35 99.6123 237.519 99.6123 236.67C99.6123 235.766 99.3218 234.912 98.7959 234.265L98.6875 234.138L98.5469 233.993C98.0617 233.526 97.4612 233.286 96.8516 233.177ZM95.2812 233.155C94.4153 233.293 93.7101 233.698 93.1484 234.283L93.1016 234.332L93.0596 234.385C92.7335 234.792 92.4894 235.236 92.3271 235.709H90.8223C91.0257 235.243 91.3555 234.819 91.8486 234.408L91.874 234.387L91.8975 234.366C92.6347 233.696 93.7635 233.244 95.2812 233.155Z" fill="white" stroke="#38556D" stroke-width="3"/>
<path d="M80.7495 233.177C82.0848 233.286 83.0697 233.612 83.7466 234.067L83.9067 234.181C84.6639 234.755 85.0376 235.539 85.0376 236.669C85.0376 237.406 84.8306 237.974 84.396 238.517C83.8283 239.227 82.7254 240.321 80.9839 241.954L80.9604 241.976L80.937 242L78.5659 244.425L76.1079 246.939H74.9927V246.588L80.645 241.464L80.6548 241.456L80.6636 241.448C81.5859 240.583 82.2018 239.873 82.7075 239.135L82.7612 239.057L82.8052 238.973C83.1255 238.35 83.5103 237.519 83.5103 236.669C83.5103 235.766 83.2197 234.912 82.6938 234.265L82.5854 234.138L82.4448 233.993C81.9596 233.526 81.3591 233.285 80.7495 233.177ZM79.1792 233.155C78.3132 233.293 77.608 233.698 77.0464 234.283L76.9995 234.332L76.9575 234.384C76.6315 234.792 76.3873 235.236 76.2251 235.708H74.7202C74.9236 235.242 75.2534 234.819 75.7466 234.408L75.772 234.387L75.7954 234.366C76.5327 233.695 77.6615 233.244 79.1792 233.155Z" fill="white" stroke="#38556D" stroke-width="3"/>
<path d="M64.8792 232.945C66.0171 233.123 66.9198 233.54 67.6155 234.168C68.5579 235.019 69.0608 236.123 69.0608 237.727V242.129C69.0608 243.732 68.5579 244.837 67.6155 245.688C66.6687 246.542 65.3388 247.008 63.553 247.008C61.6708 247.008 60.444 246.548 59.4905 245.688C58.548 244.837 58.0452 243.732 58.0452 242.129V237.727C58.0452 236.123 58.548 235.019 59.4905 234.168C60.1859 233.54 61.0883 233.123 62.2258 232.945C61.6785 233.144 61.2005 233.474 60.7952 233.931L60.6565 234.094C59.9295 235.003 59.6809 236.201 59.6809 237.367V242.309C59.6809 243.475 59.9295 244.673 60.6565 245.582C61.3773 246.483 62.3507 246.953 63.553 246.953C64.7553 246.953 65.7286 246.483 66.4495 245.582C67.1685 244.683 67.425 243.584 67.425 242.309V237.367C67.425 236.273 67.2067 235.152 66.5803 234.268L66.4495 234.094C66.0158 233.552 65.4902 233.167 64.8792 232.945Z" fill="white" stroke="#38556D" stroke-width="3"/>
<path d="M46.9504 232.848C48.8074 232.848 50.1139 233.215 50.9504 233.776L51.1116 233.891C51.9301 234.511 52.3499 235.33 52.3499 236.379C52.3499 237.101 52.1494 237.659 51.7327 238.192C51.0097 238.963 49.8673 240.089 48.1877 241.663L48.177 241.675L48.1653 241.686L45.6858 244.111L43.1399 246.602L46.7004 246.684L53.0305 246.828H42.1965V246.471L47.8586 241.256C48.8388 240.427 49.4544 239.602 49.9124 238.935L49.9661 238.856L50.009 238.771C50.3293 238.149 50.7141 237.318 50.7141 236.469C50.7141 235.505 50.3844 234.598 49.7903 233.938L49.718 233.858L49.635 233.789L49.4905 233.675C48.7589 233.124 47.9027 232.902 46.9504 232.902C45.7687 232.902 44.8437 233.352 44.1428 234.082L44.0959 234.131L44.054 234.184C43.7279 234.591 43.4838 235.035 43.3215 235.508H41.7854C41.9868 234.993 42.3266 234.548 42.843 234.117C43.8055 233.315 45.1632 232.848 46.9504 232.848Z" fill="#103F66" stroke="#38556D" stroke-width="3"/>
<path d="M96.269 200.649H94.6333V187.352H90.644V187.281L96.269 186.871V200.649Z" fill="#EAE8E8" stroke="#EAE8E8" stroke-width="3"/>
<path d="M80.7495 186.797C82.0848 186.905 83.0697 187.232 83.7466 187.687L83.9067 187.801C84.6639 188.375 85.0376 189.159 85.0376 190.289C85.0376 190.934 84.8791 191.449 84.5483 191.932L84.396 192.137C83.8283 192.847 82.7254 193.941 80.9839 195.573L80.9604 195.596L80.937 195.619L78.5659 198.045L76.1079 200.559H74.9927V200.208L80.645 195.084L80.6548 195.075L80.6636 195.068C81.5859 194.203 82.2018 193.493 82.7075 192.755L82.7612 192.677L82.8052 192.592C83.1254 191.969 83.5103 191.139 83.5103 190.289C83.5103 189.386 83.2197 188.532 82.6938 187.885L82.5854 187.758L82.4448 187.613C81.9596 187.146 81.3591 186.905 80.7495 186.797ZM79.1792 186.775C78.3132 186.913 77.608 187.318 77.0464 187.903L76.9995 187.951L76.9575 188.004C76.6315 188.412 76.3873 188.856 76.2251 189.328H74.7202C74.9236 188.862 75.2534 188.439 75.7466 188.028L75.772 188.007L75.7954 187.986C76.5327 187.315 77.6615 186.864 79.1792 186.775Z" fill="#EAE8E8" stroke="#EAE8E8" stroke-width="3"/>
<path d="M64.1067 186.774C65.5645 186.86 66.6684 187.299 67.6399 188.102C68.5662 188.95 69.0608 190.048 69.0608 191.637V196.039C69.0608 197.681 68.5344 198.83 67.6594 199.559L67.637 199.577L67.6155 199.598C66.6687 200.453 65.3388 200.918 63.553 200.918C61.7884 200.918 60.6004 200.514 59.6731 199.754L59.4905 199.598C58.548 198.747 58.0452 197.643 58.0452 196.039V191.637C58.0452 189.995 58.5716 188.847 59.4465 188.117L59.469 188.099L59.4905 188.078C60.2643 187.38 61.2941 186.941 62.6194 186.804C61.8583 186.96 61.2115 187.34 60.6868 187.931L60.5491 188.094C59.822 189.003 59.5735 190.201 59.5735 191.367V196.219C59.5735 197.313 59.7917 198.434 60.4182 199.319L60.5491 199.492C61.2699 200.393 62.2434 200.864 63.4456 200.864C64.5727 200.863 65.4981 200.45 66.2034 199.656L66.3411 199.492C67.0601 198.594 67.3167 197.494 67.3167 196.219V191.367C67.3167 190.274 67.0985 189.153 66.4719 188.268L66.3411 188.094C65.7574 187.365 65.0086 186.917 64.1067 186.774Z" fill="#EAE8E8" stroke="#EAE8E8" stroke-width="3"/>
<path d="M47.8459 186.797C49.2906 186.914 50.3251 187.287 51.0032 187.801C51.7604 188.375 52.134 189.159 52.134 190.289C52.134 191.026 51.927 191.594 51.4924 192.137C50.9248 192.847 49.8219 193.941 48.0803 195.573L48.0569 195.596L48.0334 195.619L45.6624 198.045L43.2043 200.559H42.0891V200.208L47.7415 195.084L47.7512 195.075L47.76 195.068C48.5673 194.311 49.1403 193.672 49.6096 193.031L49.804 192.755L49.8577 192.677L49.9016 192.592C50.2218 191.969 50.6067 191.139 50.6067 190.289C50.6067 189.386 50.3162 188.532 49.7903 187.885L49.6819 187.758L49.5413 187.613C49.0561 187.146 48.4555 186.905 47.8459 186.797ZM46.2756 186.775C45.4769 186.902 44.8152 187.257 44.2766 187.77L44.1428 187.903L44.0959 187.951L44.054 188.004C43.7279 188.412 43.4838 188.856 43.3215 189.328H41.8167C42.0201 188.862 42.3499 188.439 42.843 188.028L42.8684 188.007L42.8918 187.986C43.6291 187.315 44.7579 186.864 46.2756 186.775Z" fill="#EAE8E8" stroke="#EAE8E8" stroke-width="3"/>
<g filter="url(#filter0_f_259_163)">
<line y1="-2.5" x2="42.1563" y2="-2.5" transform="matrix(0.791585 0.611059 -0.704195 0.710007 453.937 104.267)" stroke="#C6C6C6" stroke-width="5"/>
</g>
<g filter="url(#filter1_f_259_163)">
<line x1="205.051" y1="102.993" x2="458.108" y2="102.993" stroke="#C6C6C6" stroke-width="5"/>
</g>
<g filter="url(#filter2_f_259_163)">
<line y1="-2.5" x2="99.3187" y2="-2.5" transform="matrix(0.755982 -0.654593 0.743713 0.668499 134.138 169.28)" stroke="#C6C6C6" stroke-width="5"/>
</g>
<g filter="url(#filter3_f_259_163)">
<line y1="-2.5" x2="122.364" y2="-2.5" transform="matrix(0.99995 0.0100247 -0.0128796 0.999917 11.7808 166.827)" stroke="#C6C6C6" stroke-width="5"/>
</g>
<g filter="url(#filter4_f_259_163)">
<line y1="-2.5" x2="193.818" y2="-2.5" transform="matrix(-0.00717387 -0.999974 0.999984 -0.0055836 16.6919 357.039)" stroke="#C6C6C6" stroke-width="5"/>
</g>
<defs>
<filter id="filter0_f_259_163" x="443.937" y="90.7166" width="56.8914" height="49.3101" filterUnits="userSpaceOnUse" color-interpolation-filters="sRGB">
<feFlood flood-opacity="0" result="BackgroundImageFix"/>
<feBlend mode="normal" in="SourceGraphic" in2="BackgroundImageFix" result="shape"/>
<feGaussianBlur stdDeviation="5" result="effect1_foregroundBlur_259_163"/>
</filter>
<filter id="filter1_f_259_163" x="195.051" y="90.4934" width="273.058" height="25" filterUnits="userSpaceOnUse" color-interpolation-filters="sRGB">
<feFlood flood-opacity="0" result="BackgroundImageFix"/>
<feBlend mode="normal" in="SourceGraphic" in2="BackgroundImageFix" result="shape"/>
<feGaussianBlur stdDeviation="5" result="effect1_foregroundBlur_259_163"/>
</filter>
<filter id="filter2_f_259_163" x="120.42" y="90.9243" width="98.8015" height="88.3557" filterUnits="userSpaceOnUse" color-interpolation-filters="sRGB">
<feFlood flood-opacity="0" result="BackgroundImageFix"/>
<feBlend mode="normal" in="SourceGraphic" in2="BackgroundImageFix" result="shape"/>
<feGaussianBlur stdDeviation="5" result="effect1_foregroundBlur_259_163"/>
</filter>
<filter id="filter3_f_259_163" x="1.78076" y="151.827" width="142.422" height="26.2261" filterUnits="userSpaceOnUse" color-interpolation-filters="sRGB">
<feFlood flood-opacity="0" result="BackgroundImageFix"/>
<feBlend mode="normal" in="SourceGraphic" in2="BackgroundImageFix" result="shape"/>
<feGaussianBlur stdDeviation="5" result="effect1_foregroundBlur_259_163"/>
</filter>
<filter id="filter4_f_259_163" x="0.301514" y="153.226" width="26.3904" height="213.841" filterUnits="userSpaceOnUse" color-interpolation-filters="sRGB">
<feFlood flood-opacity="0" result="BackgroundImageFix"/>
<feBlend mode="normal" in="SourceGraphic" in2="BackgroundImageFix" result="shape"/>
<feGaussianBlur stdDeviation="5" result="effect1_foregroundBlur_259_163"/>
</filter>
</defs>
</svg>
