<svg width="472" height="250" viewBox="0 0 472 250" fill="none" xmlns="http://www.w3.org/2000/svg">
<path d="M190.444 47.4331L118.641 108.886V61.8081L136.592 46.4448C136.592 46.4448 147.532 37.0813 154.543 31.0815C168.563 19.0821 190.444 0.35498 190.444 0.35498V23.894V47.4331Z" fill="#BEBFBF"/>
<path d="M118.631 61.9297H0.46875V109.008H118.631V61.9297Z" fill="#9BA5A5"/>
<path d="M118.631 108.828H0.46875V155.906H118.631V108.828Z" fill="#DBDBDB"/>
<path d="M190.434 94.4531L118.631 155.906V108.828L136.582 93.4648C136.582 93.4648 147.523 84.1013 154.533 78.1016C168.553 66.1021 190.434 47.375 190.434 47.375V70.9141V94.4531Z" fill="#EAE8E8"/>
<path d="M118.631 155.727H0.46875V202.805H118.631V155.727Z" fill="#38556D"/>
<path d="M190.434 141.262L118.631 202.805V155.727L190.434 94.1836V141.262Z" fill="#5B7183"/>
<path d="M118.631 202.535H0.46875V249.613H118.631V202.535Z" fill="#6A9DAC"/>
<path d="M440.236 47.4648H190.434V0.386719H440.236L471.717 23.9258L440.236 47.4648Z" fill="#9BA5A5"/>
<path d="M387.192 94.2734H190.434V47.1953H387.192L418.781 70.7344L387.192 94.2734Z" fill="#DBDBDB"/>
<path d="M338.03 141.172H190.434V94.0938H338.03L369.511 117.633L338.03 141.172Z" fill="#435E74"/>
<path d="M283.153 188.07H190.434V140.992H283.153L314.634 164.531L283.153 188.07Z" fill="#6A9DAC"/>
<path d="M190.434 188.16L118.631 249.613V202.535L190.434 141.082V188.16Z" fill="#82ACB8"/>
<path d="M82.0454 222.614L81.5542 223.35L80.6948 224.36L82.1187 222.502L82.0454 222.614ZM84.9019 221.946H82.5464L84.0347 220.004H86.4302V233.535H84.7935V230.067H84.9019V221.946Z" fill="white" stroke="#EAE8E8" stroke-width="3"/>
<path d="M84.835 182.472C85.6145 182.68 86.1671 183.058 86.4688 183.41L86.5127 183.462L86.5615 183.509C86.8257 183.766 86.9789 184.113 87.1816 185.087C87.1641 185.563 87.0567 185.934 86.8818 186.243C86.6913 186.58 86.3765 186.922 85.8545 187.262C84.9236 187.791 83.6983 188.157 82.1992 188.266C82.9007 188.162 83.5419 187.935 84.127 187.545C85.1473 186.865 85.5498 185.818 85.5498 184.859C85.5498 184.086 85.3929 183.192 84.835 182.472ZM77.7412 186.449C77.9405 186.825 78.2165 187.162 78.5615 187.449C79.1087 187.905 79.7774 188.153 80.4297 188.264C79.2888 188.163 78.2719 187.85 77.3662 187.366L77.1445 187.244C76.707 186.992 76.4222 186.721 76.2334 186.449H77.7412ZM81.1387 174.141C82.9729 174.141 84.3434 174.5 85.3271 175.057L85.5186 175.171C86.3731 175.705 86.7549 176.391 86.7549 177.402C86.7549 177.667 86.6302 178.052 86.2529 178.492C85.8991 178.905 85.3784 179.293 84.6582 179.568C85.0538 178.969 85.2266 178.269 85.2266 177.582C85.2266 176.577 84.7969 175.713 84.04 175.082C83.2424 174.417 82.2014 174.195 81.2471 174.195C80.3769 174.195 79.7289 174.424 79.1748 174.734L78.9424 174.872C78.5839 175.096 78.2762 175.382 78.0449 175.723H76.5029C76.639 175.574 76.81 175.427 77.0225 175.28L77.1904 175.171C78.2164 174.53 79.5504 174.141 81.1387 174.141Z" fill="white" stroke="#EAE8E8" stroke-width="3"/>
<path d="M66.0996 220.063C67.4349 220.171 68.4198 220.498 69.0967 220.953L69.2568 221.067C70.014 221.641 70.3877 222.425 70.3877 223.555C70.3877 224.2 70.2292 224.715 69.8984 225.198L69.7461 225.403C69.1784 226.112 68.0755 227.207 66.334 228.839L66.3105 228.862L66.2871 228.885L63.916 231.311L61.458 233.825H60.3428V233.474L65.9951 228.35L66.0049 228.341L66.0137 228.333C66.936 227.469 67.5519 226.758 68.0576 226.021L68.1113 225.943L68.1553 225.858C68.4755 225.235 68.8604 224.405 68.8604 223.555C68.8604 222.651 68.5698 221.798 68.0439 221.151L67.9355 221.024L67.7949 220.878C67.3097 220.412 66.7092 220.171 66.0996 220.063ZM64.5293 220.041C63.6633 220.178 62.9581 220.583 62.3965 221.168L62.3496 221.217L62.3076 221.27C61.9816 221.678 61.7374 222.122 61.5752 222.594H60.0703C60.2737 222.128 60.6035 221.704 61.0967 221.293L61.1221 221.273L61.1455 221.251C61.8828 220.581 63.0116 220.13 64.5293 220.041Z" fill="white" stroke="#EAE8E8" stroke-width="3"/>
<path d="M47.7183 219.966C46.9144 220.108 46.2342 220.494 45.687 221.11L45.5493 221.273C44.8223 222.182 44.5737 223.38 44.5737 224.547V229.398C44.5737 230.492 44.7919 231.613 45.4185 232.498L45.5493 232.672C46.2702 233.573 47.2436 234.043 48.4458 234.043C49.5729 234.043 50.4984 233.629 51.2036 232.835L51.3413 232.672C52.0683 231.763 52.3169 230.565 52.3169 229.398V224.547C52.3169 223.351 52.092 222.31 51.4712 221.444L51.3413 221.273C50.7843 220.577 50.0766 220.139 49.229 219.976C50.585 220.109 51.6887 220.586 52.5288 221.278C53.4573 222.127 53.9536 223.225 53.9536 224.816V229.219C53.9536 230.861 53.4272 232.009 52.5522 232.738L52.5044 232.778L52.4604 232.822C51.6469 233.624 50.3586 234.098 48.5532 234.098C46.7349 234.098 45.4686 233.582 44.4653 232.753C43.5396 231.905 43.0454 230.807 43.0454 229.219V224.816C43.0454 223.1 43.507 221.99 44.3384 221.297L44.3608 221.278L44.3833 221.258C45.1968 220.523 46.293 220.077 47.7183 219.966Z" fill="white" stroke="#EAE8E8" stroke-width="3"/>
<path d="M32.8459 219.977C34.1812 220.085 35.1661 220.412 35.843 220.866L36.0032 220.98C36.7604 221.554 37.134 222.338 37.134 223.469C37.134 224.113 36.9755 224.629 36.6448 225.111L36.4924 225.316C35.9248 226.026 34.8219 227.12 33.0803 228.753L33.0569 228.775L33.0334 228.799L30.6624 231.225L28.2043 233.738H27.0891V233.388L32.7415 228.264L32.7512 228.255L32.76 228.247C33.6824 227.382 34.2983 226.672 34.804 225.935L34.8577 225.856L34.9016 225.771C35.2218 225.149 35.6067 224.318 35.6067 223.469C35.6067 222.565 35.3162 221.712 34.7903 221.064L34.6819 220.938L34.5413 220.792C34.0561 220.325 33.4555 220.085 32.8459 219.977ZM31.2756 219.954C30.4096 220.092 29.7044 220.497 29.1428 221.082L29.0959 221.131L29.054 221.184C28.7279 221.591 28.4838 222.035 28.3215 222.508H26.8167C27.0201 222.042 27.3499 221.618 27.843 221.207L27.8684 221.187L27.8918 221.165C28.6291 220.495 29.7579 220.044 31.2756 219.954Z" fill="white" stroke="#EAE8E8" stroke-width="3"/>
<path d="M65.0496 173.974C66.3848 174.083 67.3697 174.41 68.0466 174.864L68.2068 174.978C68.964 175.552 69.3376 176.336 69.3376 177.467C69.3376 178.111 69.1791 178.626 68.8484 179.109L68.696 179.314C68.1284 180.024 67.0255 181.118 65.2839 182.751L65.2605 182.773L65.2371 182.797L62.866 185.222L60.408 187.736H59.2927V187.385L64.9451 182.261L64.9548 182.253L64.9636 182.245C65.886 181.38 66.5019 180.67 67.0076 179.932L67.0613 179.854L67.1052 179.77C67.4255 179.147 67.8103 178.316 67.8103 177.467C67.8103 176.563 67.5198 175.709 66.9939 175.062L66.8855 174.935L66.7449 174.79C66.2597 174.323 65.6592 174.082 65.0496 173.974ZM63.4792 173.952C62.6133 174.09 61.908 174.495 61.3464 175.08L61.2996 175.129L61.2576 175.181C60.9315 175.589 60.6874 176.033 60.5251 176.506H59.0203C59.2237 176.04 59.5535 175.616 60.0466 175.205L60.072 175.184L60.0955 175.163C60.8328 174.493 61.9615 174.041 63.4792 173.952Z" fill="white" stroke="#EAE8E8" stroke-width="3"/>
<path d="M49.1711 173.966C50.4935 174.069 51.5325 174.46 52.3254 175.103L52.5071 175.258C53.4497 176.109 53.9534 177.213 53.9534 178.816V183.219C53.9534 184.861 53.427 186.009 52.552 186.738L52.5042 186.778L52.4602 186.822C51.6466 187.624 50.3584 188.098 48.553 188.098C46.7347 188.098 45.4684 187.582 44.4651 186.753C43.5394 185.905 43.0452 184.807 43.0452 183.219V178.816C43.0452 177.207 43.4509 176.131 44.1868 175.432L44.3381 175.297L44.3606 175.278L44.3831 175.258C45.1966 174.523 46.2927 174.077 47.718 173.966C46.9142 174.108 46.234 174.494 45.6868 175.11L45.5491 175.273C44.822 176.182 44.5735 177.38 44.5735 178.547V183.398C44.5735 184.492 44.7917 185.613 45.4182 186.498L45.5491 186.672C46.2699 187.573 47.2434 188.043 48.4456 188.043C49.5727 188.043 50.4981 187.629 51.2034 186.835L51.3411 186.672C52.0681 185.763 52.3167 184.565 52.3167 183.398V178.547C52.3166 177.351 52.0917 176.31 51.4709 175.444L51.3411 175.273C50.7715 174.562 50.0442 174.12 49.1711 173.966Z" fill="white" stroke="#EAE8E8" stroke-width="3"/>
<path d="M32.6555 173.874C34.088 173.966 35.1343 174.301 35.843 174.777L36.0032 174.891C36.7604 175.464 37.134 176.249 37.134 177.379C37.134 178.024 36.9755 178.539 36.6448 179.022L36.4924 179.227C35.9248 179.936 34.8219 181.031 33.0803 182.663L33.0569 182.686L33.0334 182.709L30.6624 185.135L28.2043 187.649H26.9817V187.297L32.634 182.174L32.6438 182.165L32.6526 182.157C33.575 181.293 34.1908 180.582 34.6965 179.845L34.7502 179.767L34.7932 179.682C35.1135 179.059 35.4983 178.229 35.4983 177.379C35.4983 176.475 35.2086 175.622 34.6829 174.975L34.5745 174.848L34.4329 174.702C33.9259 174.215 33.2931 173.975 32.6555 173.874ZM31.0911 173.877C30.4194 173.998 29.7596 174.305 29.2034 174.918L29.054 175.094C28.7279 175.502 28.4838 175.946 28.3215 176.418H26.8167C27.0201 175.952 27.3498 175.528 27.843 175.117L27.8684 175.097L27.8918 175.075C28.5989 174.433 29.6661 173.991 31.0911 173.877Z" fill="white" stroke="#EAE8E8" stroke-width="3"/>
<path d="M81.8516 128.177C83.1868 128.286 84.1717 128.613 84.8486 129.067L85.0088 129.181C85.766 129.755 86.1396 130.539 86.1396 131.67C86.1396 132.314 85.9811 132.83 85.6504 133.312L85.498 133.517C84.9304 134.227 83.8275 135.321 82.0859 136.954L82.0625 136.976L82.0391 137L79.668 139.426L77.21 141.939H76.0947V141.589L81.7471 136.465L81.7568 136.456L81.7656 136.448C82.688 135.583 83.3039 134.873 83.8096 134.135L83.8633 134.057L83.9072 133.972C84.2275 133.35 84.6123 132.519 84.6123 131.67C84.6123 130.766 84.3218 129.912 83.7959 129.265L83.6875 129.138L83.5469 128.993C83.0617 128.526 82.4612 128.286 81.8516 128.177ZM80.2812 128.155C79.4153 128.293 78.7101 128.698 78.1484 129.283L78.1016 129.332L78.0596 129.385C77.7335 129.792 77.4894 130.236 77.3271 130.709H75.8223C76.0257 130.243 76.3555 129.819 76.8486 129.408L76.874 129.387L76.8975 129.366C77.6347 128.696 78.7635 128.244 80.2812 128.155Z" fill="white" stroke="#38556D" stroke-width="3"/>
<path d="M65.7495 128.177C67.0848 128.286 68.0697 128.612 68.7466 129.067L68.9067 129.181C69.6639 129.755 70.0376 130.539 70.0376 131.669C70.0376 132.406 69.8306 132.974 69.396 133.517C68.8283 134.227 67.7254 135.321 65.9839 136.954L65.9604 136.976L65.937 137L63.5659 139.425L61.1079 141.939H59.9927V141.588L65.645 136.464L65.6548 136.456L65.6636 136.448C66.5859 135.583 67.2018 134.873 67.7075 134.135L67.7612 134.057L67.8052 133.973C68.1255 133.35 68.5103 132.519 68.5103 131.669C68.5103 130.766 68.2197 129.912 67.6938 129.265L67.5854 129.138L67.4448 128.993C66.9596 128.526 66.3591 128.285 65.7495 128.177ZM64.1792 128.155C63.3132 128.293 62.608 128.698 62.0464 129.283L61.9995 129.332L61.9575 129.384C61.6315 129.792 61.3873 130.236 61.2251 130.708H59.7202C59.9236 130.242 60.2534 129.819 60.7466 129.408L60.772 129.387L60.7954 129.366C61.5327 128.695 62.6615 128.244 64.1792 128.155Z" fill="white" stroke="#38556D" stroke-width="3"/>
<path d="M49.8792 127.945C51.0171 128.123 51.9198 128.54 52.6155 129.168C53.5579 130.019 54.0608 131.123 54.0608 132.727V137.129C54.0608 138.732 53.5579 139.837 52.6155 140.688C51.6687 141.542 50.3388 142.008 48.553 142.008C46.6708 142.008 45.444 141.548 44.4905 140.688C43.548 139.837 43.0452 138.732 43.0452 137.129V132.727C43.0452 131.123 43.548 130.019 44.4905 129.168C45.1859 128.54 46.0883 128.123 47.2258 127.945C46.6785 128.144 46.2005 128.474 45.7952 128.931L45.6565 129.094C44.9295 130.003 44.6809 131.201 44.6809 132.367V137.309C44.6809 138.475 44.9295 139.673 45.6565 140.582C46.3773 141.483 47.3507 141.953 48.553 141.953C49.7553 141.953 50.7286 141.483 51.4495 140.582C52.1685 139.683 52.425 138.584 52.425 137.309V132.367C52.425 131.273 52.2067 130.152 51.5803 129.268L51.4495 129.094C51.0158 128.552 50.4902 128.167 49.8792 127.945Z" fill="white" stroke="#38556D" stroke-width="3"/>
<path d="M31.9504 127.848C33.8074 127.848 35.1139 128.215 35.9504 128.776L36.1116 128.891C36.9301 129.511 37.3499 130.33 37.3499 131.379C37.3499 132.101 37.1494 132.659 36.7327 133.192C36.0097 133.963 34.8673 135.089 33.1877 136.663L33.177 136.675L33.1653 136.686L30.6858 139.111L28.1399 141.602L31.7004 141.684L38.0305 141.828H27.1965V141.471L32.8586 136.256C33.8388 135.427 34.4544 134.602 34.9124 133.935L34.9661 133.856L35.009 133.771C35.3293 133.149 35.7141 132.318 35.7141 131.469C35.7141 130.505 35.3844 129.598 34.7903 128.938L34.718 128.858L34.635 128.789L34.4905 128.675C33.7589 128.124 32.9027 127.902 31.9504 127.902C30.7687 127.902 29.8437 128.352 29.1428 129.082L29.0959 129.131L29.054 129.184C28.7279 129.591 28.4838 130.035 28.3215 130.508H26.7854C26.9868 129.993 27.3266 129.548 27.843 129.117C28.8055 128.315 30.1632 127.848 31.9504 127.848Z" fill="#103F66" stroke="#38556D" stroke-width="3"/>
<path d="M81.269 95.6487H79.6333V82.3518H75.644V82.2815L81.269 81.8713V95.6487Z" fill="#EAE8E8" stroke="#EAE8E8" stroke-width="3"/>
<path d="M65.7495 81.7971C67.0848 81.9054 68.0697 82.2324 68.7466 82.6868L68.9067 82.801C69.6639 83.3746 70.0376 84.1588 70.0376 85.2893C70.0376 85.9339 69.8791 86.4491 69.5483 86.9319L69.396 87.137C68.8283 87.8465 67.7254 88.9408 65.9839 90.5735L65.9604 90.5959L65.937 90.6194L63.5659 93.0452L61.1079 95.5588H59.9927V95.2083L65.645 90.0842L65.6548 90.0754L65.6636 90.0676C66.5859 89.2029 67.2018 88.4925 67.7075 87.7551L67.7612 87.677L67.8052 87.592C68.1254 86.9693 68.5103 86.1389 68.5103 85.2893C68.5103 84.3855 68.2197 83.5321 67.6938 82.885L67.5854 82.7581L67.4448 82.6125C66.9596 82.1458 66.3591 81.9052 65.7495 81.7971ZM64.1792 81.7747C63.3132 81.9126 62.608 82.3176 62.0464 82.9026L61.9995 82.9514L61.9575 83.0042C61.6315 83.4117 61.3873 83.856 61.2251 84.3284H59.7202C59.9236 83.8623 60.2534 83.4386 60.7466 83.0276L60.772 83.0071L60.7954 82.9856C61.5327 82.3153 62.6615 81.8641 64.1792 81.7747Z" fill="#EAE8E8" stroke="#EAE8E8" stroke-width="3"/>
<path d="M49.1067 81.7737C50.5645 81.8599 51.6684 82.2986 52.6399 83.1018C53.5662 83.9497 54.0608 85.048 54.0608 86.637V91.0393C54.0608 92.6814 53.5344 93.8297 52.6594 94.5588L52.637 94.5774L52.6155 94.5979C51.6687 95.4527 50.3388 95.9182 48.553 95.9182C46.7884 95.9182 45.6004 95.514 44.6731 94.7542L44.4905 94.5979C43.548 93.747 43.0452 92.6425 43.0452 91.0393V86.637C43.0452 84.9949 43.5716 83.8466 44.4465 83.1174L44.469 83.0989L44.4905 83.0784C45.2643 82.3798 46.2941 81.9409 47.6194 81.804C46.8583 81.9599 46.2115 82.3399 45.6868 82.9309L45.5491 83.094C44.822 84.0028 44.5735 85.2007 44.5735 86.3674V91.219C44.5735 92.3129 44.7917 93.4339 45.4182 94.3186L45.5491 94.4924C46.2699 95.3933 47.2434 95.8635 48.4456 95.8635C49.5727 95.8634 50.4981 95.4497 51.2034 94.6555L51.3411 94.4924C52.0601 93.5937 52.3167 92.4943 52.3167 91.219V86.3674C52.3167 85.2735 52.0985 84.1525 51.4719 83.2678L51.3411 83.094C50.7574 82.3647 50.0086 81.9175 49.1067 81.7737Z" fill="#EAE8E8" stroke="#EAE8E8" stroke-width="3"/>
<path d="M32.8459 81.7971C34.1812 81.9054 35.1661 82.2324 35.843 82.6868L36.0032 82.801C36.7604 83.3746 37.134 84.1588 37.134 85.2893C37.134 85.9339 36.9755 86.4491 36.6448 86.9319L36.4924 87.137C35.9248 87.8465 34.8219 88.9408 33.0803 90.5735L33.0569 90.5959L33.0334 90.6194L30.6624 93.0452L28.2043 95.5588H27.0891V95.2083L32.7415 90.0842L32.7512 90.0754L32.76 90.0676C33.6823 89.2029 34.2983 88.4925 34.804 87.7551L34.8577 87.677L34.9016 87.592C35.2219 86.9693 35.6067 86.1389 35.6067 85.2893C35.6067 84.3855 35.3162 83.5321 34.7903 82.885L34.6819 82.7581L34.5413 82.6125C34.0561 82.1458 33.4555 81.9052 32.8459 81.7971ZM31.2756 81.7747C30.4097 81.9126 29.7044 82.3176 29.1428 82.9026L29.0959 82.9514L29.054 83.0042C28.7279 83.4117 28.4838 83.856 28.3215 84.3284H26.8167C27.0201 83.8623 27.3499 83.4386 27.843 83.0276L27.8684 83.0071L27.8918 82.9856C28.6291 82.3153 29.7579 81.8641 31.2756 81.7747Z" fill="#EAE8E8" stroke="#EAE8E8" stroke-width="3"/>
</svg>
