<svg width="31" height="24" viewBox="0 0 31 24" fill="none" xmlns="http://www.w3.org/2000/svg">
<path d="M4.77523 0.354492H25.4679C26.7344 0.354492 27.949 0.832819 28.8445 1.68425C29.74 2.53567 30.2431 3.69045 30.2431 4.89455V18.5147C30.2431 19.7188 29.74 20.8736 28.8445 21.725C27.949 22.5765 26.7344 23.0548 25.4679 23.0548H4.77523C3.50876 23.0548 2.29416 22.5765 1.39863 21.725C0.503103 20.8736 0 19.7188 0 18.5147V4.89455C0 3.69045 0.503103 2.53567 1.39863 1.68425C2.29416 0.832819 3.50876 0.354492 4.77523 0.354492ZM4.77523 1.86785C3.97936 1.86785 3.27899 2.12512 2.7378 2.57912L15.1216 10.1913L27.5053 2.57912C26.9641 2.12512 26.2638 1.86785 25.4679 1.86785H4.77523ZM15.1216 12.0224L1.79867 3.80494C1.67133 4.13788 1.59174 4.51621 1.59174 4.89455V18.5147C1.59174 19.3175 1.92715 20.0873 2.52417 20.6549C3.12119 21.2226 3.93092 21.5414 4.77523 21.5414H25.4679C26.3122 21.5414 27.1219 21.2226 27.719 20.6549C28.316 20.0873 28.6514 19.3175 28.6514 18.5147V4.89455C28.6514 4.51621 28.5718 4.13788 28.4445 3.80494L15.1216 12.0224Z" fill="#A4A4A4"/>
</svg>
