<svg width="31" height="24" viewBox="0 0 31 24" fill="none" xmlns="http://www.w3.org/2000/svg">
<path d="M4.77523 0.354553H25.4679C26.7344 0.354553 27.949 0.83288 28.8445 1.68431C29.74 2.53573 30.2431 3.69051 30.2431 4.89461V18.5148C30.2431 19.7189 29.74 20.8737 28.8445 21.7251C27.949 22.5765 26.7344 23.0549 25.4679 23.0549H4.77523C3.50876 23.0549 2.29416 22.5765 1.39863 21.7251C0.503103 20.8737 0 19.7189 0 18.5148V4.89461C0 3.69051 0.503103 2.53573 1.39863 1.68431C2.29416 0.83288 3.50876 0.354553 4.77523 0.354553ZM4.77523 1.86791C3.97936 1.86791 3.27899 2.12518 2.7378 2.57918L15.1216 10.1914L27.5053 2.57918C26.9641 2.12518 26.2638 1.86791 25.4679 1.86791H4.77523ZM15.1216 12.0225L1.79867 3.805C1.67133 4.13794 1.59174 4.51628 1.59174 4.89461V18.5148C1.59174 19.3175 1.92715 20.0874 2.52417 20.655C3.12119 21.2226 3.93092 21.5415 4.77523 21.5415H25.4679C26.3122 21.5415 27.1219 21.2226 27.719 20.655C28.316 20.0874 28.6514 19.3175 28.6514 18.5148V4.89461C28.6514 4.51628 28.5718 4.13794 28.4445 3.805L15.1216 12.0225Z" fill="#A4A4A4"/>
</svg>
