<svg width="33" height="25" viewBox="0 0 33 25" fill="none" xmlns="http://www.w3.org/2000/svg">
<path d="M6.36 12.12C6.73333 12.0667 7.24 12.04 7.88 12.04C9.90667 12.04 11.4267 12.6267 12.44 13.8C13.5067 14.92 14.04 16.3333 14.04 18.04C14.04 19.8533 13.4267 21.3733 12.2 22.6C11.0267 23.8267 9.4 24.44 7.32 24.44C5.18667 24.44 3.48 23.8533 2.2 22.68C0.92 21.4533 0.28 19.6933 0.28 17.4C0.28 14.3067 1.21333 11.1867 3.08 8.04C4.94667 4.84 7.24 2.17333 9.96 0.039999L11.56 1.72C8.09333 5.4 6.36 8.86666 6.36 12.12ZM25.08 12.12C25.4533 12.0667 25.96 12.04 26.6 12.04C28.6267 12.04 30.1467 12.6267 31.16 13.8C32.2267 14.92 32.76 16.3333 32.76 18.04C32.76 19.8533 32.1467 21.3733 30.92 22.6C29.7467 23.8267 28.12 24.44 26.04 24.44C23.9067 24.44 22.2 23.8533 20.92 22.68C19.64 21.4533 19 19.6933 19 17.4C19 14.3067 19.9333 11.1867 21.8 8.04C23.6667 4.84 25.96 2.17333 28.68 0.039999L30.28 1.72C26.8133 5.4 25.08 8.86666 25.08 12.12Z" fill="#008080"/>
</svg>
